HIERARCHY
ROOT Hips
{
	OFFSET 0.000000 0.000000 0.000000
	CHANNELS 6 Xposition Yposition Zposition Yrotation Xrotation Zrotation
	JOINT Chest
	{
		OFFSET 0.000000 -0.009281 11.569106
		CHANNELS 3 Yrotation Xrotation Zrotation
		JOINT Chest2
		{
			OFFSET -0.000000 0.016865 9.269641
			CHANNELS 3 Yrotation Xrotation Zrotation
			JOINT Chest3
			{
				OFFSET -0.000000 0.000001 8.374491
				CHANNELS 3 Yrotation Xrotation Zrotation
				JOINT Chest4
				{
					OFFSET -0.000000 0.000001 8.374493
					CHANNELS 3 Yrotation Xrotation Zrotation
					JOINT Neck
					{
						OFFSET -0.000000 0.000002 12.152554
						CHANNELS 3 Yrotation Xrotation Zrotation
						JOINT Head
						{
							OFFSET -0.000000 0.040101 7.802319
							CHANNELS 3 Yrotation Xrotation Zrotation
							End Site
							{
								OFFSET -0.000000 0.020947 14.853096
							}
						}
					}
					JOINT RightCollar
					{
						OFFSET 2.894404 0.000001 6.791374
						CHANNELS 3 Yrotation Xrotation Zrotation
						JOINT RightShoulder
						{
							OFFSET 13.574684 0.000001 0.000000
							CHANNELS 3 Yrotation Xrotation Zrotation
							JOINT RightElbow
							{
								OFFSET 23.923903 0.000002 0.000000
								CHANNELS 3 Yrotation Xrotation Zrotation
								JOINT RightWrist
								{
									OFFSET 19.846718 0.012767 0.000000
									CHANNELS 3 Yrotation Xrotation Zrotation
									End Site
									{
										OFFSET 14.973145 0.000001 0.000000
									}
								}
							}
						}
					}
					JOINT LeftCollar
					{
						OFFSET -2.894404 0.000001 6.791374
						CHANNELS 3 Yrotation Xrotation Zrotation
						JOINT LeftShoulder
						{
							OFFSET -13.574684 -0.000001 0.000000
							CHANNELS 3 Yrotation Xrotation Zrotation
							JOINT LeftElbow
							{
								OFFSET -23.923903 -0.000002 0.000000
								CHANNELS 3 Yrotation Xrotation Zrotation
								JOINT LeftWrist
								{
									OFFSET -19.846718 0.012763 0.000000
									CHANNELS 3 Yrotation Xrotation Zrotation
									End Site
									{
										OFFSET -14.973145 -0.000001 0.000000
									}
								}
							}
						}
					}
				}
			}
		}
	}
	JOINT RightHip
	{
		OFFSET 9.469263 0.004643 0.045487
		CHANNELS 3 Yrotation Xrotation Zrotation
		JOINT RightKnee
		{
			OFFSET 0.000000 0.002661 -40.478676
			CHANNELS 3 Yrotation Xrotation Zrotation
			JOINT RightAnkle
			{
				OFFSET 0.000000 0.049106 -35.224068
				CHANNELS 3 Yrotation Xrotation Zrotation
				JOINT RightToe
				{
					OFFSET -0.000001 12.539529 -6.151390
					CHANNELS 3 Yrotation Xrotation Zrotation
					End Site
					{
						OFFSET -0.000001 5.044994 -1.291870
					}
				}
			}
		}
	}
	JOINT LeftHip
	{
		OFFSET -9.469263 0.004641 0.045487
		CHANNELS 3 Yrotation Xrotation Zrotation
		JOINT LeftKnee
		{
			OFFSET 0.000000 0.002661 -40.478676
			CHANNELS 3 Yrotation Xrotation Zrotation
			JOINT LeftAnkle
			{
				OFFSET 0.000000 0.049106 -35.224068
				CHANNELS 3 Yrotation Xrotation Zrotation
				JOINT LeftToe
				{
					OFFSET -0.000001 12.539529 -6.151390
					CHANNELS 3 Yrotation Xrotation Zrotation
					End Site
					{
						OFFSET -0.000001 5.044994 -1.291870
					}
				}
			}
		}
	}
}
MOTION
Frames: 17
Frame Time: 0.016667
11.212645 5.958791 82.963249 -6.961439 -2.769182 -109.437191 0.222606 -4.650858 5.123834 0.160894 -2.059122 2.270061 0.160894 -2.059123 2.270061 0.128311 -1.543770 1.702904 2.798339 -15.590180 -4.393308 3.596840 7.257008 -7.163526 8.823882 2.871599 -11.057830 79.460877 8.905455 7.059992 -1.685983 -20.776168 0.132814 -15.683313 5.748262 18.574805 -10.866120 -1.861924 -12.647139 -76.323341 4.316433 -6.279810 0.560011 -9.682257 0.708414 17.698656 -18.725795 -21.808048 -0.110661 -11.162590 -4.440071 0.790945 -0.860140 -0.920474 0.278734 4.503401 2.460655 0.027699 0.019891 -0.051993 0.054207 -10.527661 -0.726688 0.400541 -0.996759 -2.022173 -0.064237 4.200508 3.376100 0.051475 -0.073275 0.054601 
11.231805 5.978307 82.963890 -6.947933 -2.773030 -109.414665 0.215794 -4.661830 5.137149 0.158629 -2.064138 2.275514 0.158629 -2.064138 2.275516 0.126649 -1.547539 1.706988 2.754759 -15.583024 -4.334916 3.536862 7.269426 -7.070755 8.848726 2.961353 -11.039274 79.403121 8.932569 6.981033 -1.716908 -20.824413 0.080110 -15.753874 5.751196 18.628687 -10.842730 -1.805888 -12.687432 -76.293363 4.323955 -6.266298 0.521656 -9.751824 0.672382 17.832879 -18.483428 -22.009108 -0.126839 -11.127259 -4.470556 0.803302 -0.936076 -0.881169 0.266969 4.542025 2.448278 0.036105 0.023511 -0.050878 0.053110 -10.501301 -0.700061 0.395308 -1.043594 -2.046149 -0.056194 4.237379 3.354286 0.055112 -0.074422 0.053809 
11.251124 5.997715 82.964935 -6.942649 -2.776522 -109.381238 0.207355 -4.678010 5.151919 0.155325 -2.071591 2.281255 0.155325 -2.071591 2.281253 0.124218 -1.553140 1.711280 2.713253 -15.580580 -4.272227 3.482511 7.273231 -6.969149 8.873384 3.087952 -11.036129 79.323884 8.979937 6.874795 -1.717158 -20.883372 0.053285 -15.799477 5.766772 18.666033 -10.816089 -1.738398 -12.732986 -76.257901 4.330516 -6.257690 0.471823 -9.755610 0.635313 17.936162 -18.267925 -22.173789 -0.141985 -11.096758 -4.494407 0.816448 -1.018508 -0.846595 0.246648 4.584149 2.418209 0.046576 0.027432 -0.051290 0.045039 -10.477949 -0.692076 0.390280 -1.092738 -2.070526 -0.044061 4.270720 3.381042 0.059618 -0.074519 0.054544 
11.268714 6.020180 82.966011 -6.934263 -2.780165 -109.346582 0.203911 -4.685156 5.165868 0.154283 -2.075219 2.286599 0.154283 -2.075219 2.286599 0.123469 -1.555863 1.715285 2.669014 -15.584960 -4.201656 3.426201 7.264375 -6.853804 8.888162 3.187857 -11.043049 79.249681 9.059345 6.776680 -1.700609 -20.985874 0.054431 -15.835835 5.810591 18.691933 -10.797639 -1.689793 -12.761240 -76.214789 4.333310 -6.255562 0.417288 -9.753305 0.588180 18.025861 -18.082832 -22.296767 -0.150748 -11.061325 -4.458540 0.817987 -1.098976 -0.852831 0.227764 4.622112 2.347706 0.058651 0.032109 -0.049977 0.040397 -10.452731 -0.701351 0.390243 -1.140761 -2.087982 -0.036005 4.304818 3.380395 0.061054 -0.075395 0.053253 
11.282322 6.039122 82.967545 -6.924485 -2.786023 -109.312096 0.209849 -4.683577 5.174356 0.156633 -2.074819 2.288916 0.156633 -2.074819 2.288918 0.125237 -1.555553 1.717031 2.619588 -15.596846 -4.118004 3.365295 7.241565 -6.715917 8.898782 3.249467 -11.038352 79.179576 9.160986 6.695010 -1.683479 -21.081355 0.082249 -15.862293 5.838106 18.718678 -10.794827 -1.655953 -12.776437 -76.161828 4.345988 -6.251468 0.365662 -9.793084 0.554506 18.120444 -17.880132 -22.428448 -0.154424 -11.024432 -4.397109 0.820650 -1.178241 -0.882519 0.203666 4.656846 2.289511 0.070072 0.037844 -0.046729 0.035910 -10.425496 -0.724532 0.389131 -1.183719 -2.088561 -0.023985 4.332984 3.394670 0.061162 -0.076984 0.052369 
11.293021 6.060301 82.970062 -6.917026 -2.789294 -109.277542 0.220140 -4.673892 5.177307 0.161042 -2.071279 2.288663 0.161043 -2.071279 2.288666 0.128531 -1.552882 1.716858 2.566203 -15.619529 -4.021009 3.302261 7.198743 -6.554528 8.902128 3.273350 -11.040471 79.108030 9.244589 6.629806 -1.654943 -21.157638 0.126061 -15.886537 5.869772 18.733262 -10.798083 -1.652672 -12.775259 -76.116605 4.362476 -6.259394 0.333048 -9.883035 0.527521 18.238220 -17.624258 -22.562732 -0.165359 -10.986596 -4.338912 0.833418 -1.255451 -0.918016 0.175318 4.686780 2.228223 0.078306 0.043441 -0.045401 0.035835 -10.404088 -0.743239 0.382443 -1.214650 -2.105337 -0.011388 4.349164 3.401370 0.059438 -0.074214 0.051274 
11.300705 6.081711 82.973297 -6.911793 -2.788804 -109.238180 0.233321 -4.655308 5.174203 0.166426 -2.063851 2.286077 0.166426 -2.063851 2.286076 0.132532 -1.547291 1.714934 2.514566 -15.652577 -3.913412 3.246681 7.136852 -6.372657 8.902104 3.280980 -11.042199 79.031491 9.308241 6.563377 -1.620949 -21.219284 0.164827 -15.923604 5.916951 18.747828 -10.803351 -1.675589 -12.773673 -76.089325 4.370634 -6.267086 0.330138 -9.964931 0.512802 18.357281 -17.392722 -22.715749 -0.182833 -10.950361 -4.294600 0.849252 -1.329953 -0.962737 0.150868 4.713977 2.195419 0.082998 0.049197 -0.045316 0.029788 -10.383904 -0.766595 0.378472 -1.237050 -2.124569 0.001370 4.355005 3.390779 0.057539 -0.069478 0.051223 
11.307644 6.104052 82.976379 -6.904741 -2.785987 -109.198209 0.245357 -4.635707 5.173902 0.171515 -2.055266 2.285121 0.171515 -2.055266 2.285120 0.136313 -1.540834 1.714232 2.469132 -15.684165 -3.800731 3.204428 7.077869 -6.179050 8.893100 3.285453 -11.055942 78.958537 9.349089 6.498653 -1.572962 -21.299533 0.184647 -15.988990 6.001630 18.778128 -10.805080 -1.685871 -12.779415 -76.078533 4.365763 -6.259560 0.341418 -9.992305 0.509663 18.460504 -17.244324 -22.847650 -0.202411 -10.914150 -4.236463 0.868668 -1.397366 -1.023428 0.125126 4.738878 2.164233 0.086104 0.052948 -0.044773 0.017332 -10.363751 -0.800287 0.380204 -1.251000 -2.130490 0.013240 4.354261 3.414689 0.055470 -0.064538 0.050187 
11.314757 6.126764 82.978706 -6.892627 -2.782887 -109.156682 0.261579 -4.620130 5.171051 0.178862 -2.047578 2.282779 0.178862 -2.047578 2.282778 0.141785 -1.535041 1.712502 2.423789 -15.704435 -3.682473 3.163999 7.039931 -5.975099 8.875665 3.312697 -11.055212 78.872668 9.362828 6.407809 -1.516763 -21.389632 0.199990 -16.078253 6.091670 18.823694 -10.815547 -1.668103 -12.773488 -76.071177 4.341238 -6.245403 0.349663 -9.964741 0.525546 18.524583 -17.168913 -22.917122 -0.215488 -10.871675 -4.181948 0.875311 -1.467637 -1.085524 0.110263 4.766157 2.134316 0.086735 0.055913 -0.043516 0.006832 -10.340960 -0.824476 0.382313 -1.261612 -2.135965 0.024605 4.355634 3.433886 0.053190 -0.062988 0.048520 
11.322376 6.150192 82.980934 -6.879818 -2.779376 -109.108707 0.276214 -4.609028 5.165537 0.185601 -2.042010 2.279710 0.185601 -2.042010 2.279711 0.146808 -1.530841 1.710222 2.379493 -15.712874 -3.562279 3.125864 7.023960 -5.767229 8.863063 3.333710 -11.048424 78.800343 9.358774 6.322925 -1.471512 -21.478324 0.225462 -16.153826 6.151099 18.872941 -10.818672 -1.654814 -12.764176 -76.063500 4.308271 -6.255973 0.356295 -9.916361 0.560204 18.550126 -17.141804 -22.934742 -0.234056 -10.827025 -4.158881 0.887131 -1.539975 -1.124308 0.099873 4.795517 2.121048 0.084564 0.056745 -0.041664 0.002486 -10.318085 -0.843155 0.381225 -1.271307 -2.153167 0.032768 4.356514 3.398254 0.052237 -0.061327 0.046285 
11.329620 6.177079 82.983116 -6.864168 -2.770553 -109.057098 0.286194 -4.600243 5.164657 0.189851 -2.038056 2.278022 0.189851 -2.038056 2.278022 0.149975 -1.527859 1.708968 2.339003 -15.704499 -3.448104 3.092151 7.039210 -5.569247 8.857813 3.338189 -11.057074 78.739616 9.341549 6.265348 -1.419246 -21.539498 0.253882 -16.213310 6.147151 18.927270 -10.819140 -1.640015 -12.765232 -76.053268 4.272286 -6.269125 0.370680 -9.863205 0.593086 18.538670 -17.152644 -22.919352 -0.255806 -10.780112 -4.155496 0.900970 -1.613718 -1.140140 0.088198 4.830532 2.102565 0.081528 0.055789 -0.041888 -0.014999 -10.282675 -0.854424 0.383804 -1.291835 -2.175996 0.045643 4.359335 3.398236 0.052253 -0.059346 0.045095 
11.336407 6.205859 82.984901 -6.842393 -2.759257 -108.996029 0.296092 -4.591451 5.161241 0.193421 -2.033955 2.275412 0.193421 -2.033955 2.275412 0.152628 -1.524772 1.707024 2.298733 -15.680960 -3.339813 3.056334 7.082549 -5.382187 8.863481 3.332846 -11.066011 78.682960 9.332526 6.222085 -1.362087 -21.586292 0.290313 -16.264895 6.135798 18.968084 -10.819477 -1.644639 -12.777155 -76.041883 4.244931 -6.295002 0.393382 -9.820612 0.619467 18.510154 -17.175965 -22.883833 -0.273479 -10.723458 -4.126947 0.906184 -1.689642 -1.186379 0.080395 4.865770 2.060977 0.081396 0.054475 -0.040130 -0.026438 -10.236737 -0.872951 0.383433 -1.319182 -2.208607 0.056686 4.366737 3.395707 0.052781 -0.059056 0.043237 
11.341333 6.232214 82.986359 -6.817115 -2.749725 -108.931074 0.307973 -4.584718 5.155284 0.198029 -2.030451 2.272023 0.198029 -2.030450 2.272026 0.156061 -1.522127 1.704498 2.253085 -15.642791 -3.234252 3.009189 7.152878 -5.202207 8.890657 3.336185 -11.056958 78.592337 9.344784 6.173119 -1.275622 -21.595001 0.338101 -16.284679 6.134967 18.971704 -10.829647 -1.648159 -12.787478 -76.012629 4.209236 -6.324943 0.410588 -9.810683 0.653666 18.472979 -17.174714 -22.834625 -0.279899 -10.670404 -4.066399 0.904649 -1.752794 -1.272229 0.073708 4.895933 2.017633 0.081530 0.052936 -0.036498 -0.033591 -10.186922 -0.892659 0.384581 -1.346651 -2.256914 0.064779 4.374336 3.380047 0.054308 -0.060287 0.041313 
11.345376 6.258271 82.987877 -6.795491 -2.742181 -108.864999 0.321815 -4.584425 5.151667 0.204434 -2.029994 2.269296 0.204434 -2.029993 2.269297 0.160852 -1.521761 1.702473 2.202143 -15.592250 -3.134973 2.949648 7.246027 -5.035913 8.911726 3.323774 -11.056865 78.501529 9.355490 6.152923 -1.163250 -21.572558 0.393115 -16.238256 6.148666 18.931230 -10.848720 -1.650553 -12.795401 -75.964975 4.134969 -6.369267 0.426341 -9.815158 0.706482 18.423763 -17.161523 -22.777791 -0.287037 -10.621578 -4.031009 0.908065 -1.813914 -1.340079 0.063886 4.923719 1.971219 0.081578 0.051640 -0.033917 -0.038875 -10.140437 -0.906391 0.382658 -1.374020 -2.312164 0.075277 4.382155 3.379733 0.055156 -0.062816 0.038922 
11.349499 6.284626 82.989822 -6.778572 -2.736968 -108.798739 0.337768 -4.596910 5.153259 0.211876 -2.035388 2.268740 0.211876 -2.035387 2.268740 0.166452 -1.525780 1.702083 2.150286 -15.528406 -3.046956 2.884031 7.363802 -4.890972 8.940806 3.313167 -11.046965 78.391413 9.374075 6.148384 -1.032024 -21.492927 0.461649 -16.147863 6.132134 18.863796 -10.863267 -1.646469 -12.818620 -75.927142 4.025676 -6.443345 0.456284 -9.768642 0.776556 18.360452 -17.199673 -22.695943 -0.301275 -10.578168 -4.026637 0.917978 -1.871704 -1.371214 0.055193 4.946373 1.926736 0.080522 0.051393 -0.033029 -0.046216 -10.100666 -0.926919 0.382264 -1.396724 -2.355183 0.085390 4.386842 3.402025 0.056423 -0.065268 0.037570 
11.352139 6.316154 82.992081 -6.761207 -2.729892 -108.735287 0.351399 -4.614818 5.157283 0.218445 -2.043551 2.269460 0.218445 -2.043551 2.269459 0.171410 -1.531877 1.702645 2.101991 -15.460410 -2.966726 2.822175 7.489362 -4.759227 8.979113 3.306912 -11.033889 78.254939 9.366309 6.165366 -0.891297 -21.405823 0.536921 -16.019848 6.096721 18.772811 -10.876593 -1.646599 -12.848664 -75.897383 3.887673 -6.535773 0.511712 -9.642382 0.825497 18.181043 -17.330125 -22.446525 -0.322622 -10.538642 -4.035778 0.935699 -1.920180 -1.392229 0.044230 4.964917 1.914733 0.079276 0.050491 -0.033804 -0.049007 -10.061190 -0.947797 0.370396 -1.415253 -2.394674 0.098754 4.386179 3.385663 0.058255 -0.065538 0.036769 
11.354646 6.346735 82.995110 -6.744907 -2.722981 -108.674395 0.366463 -4.636144 5.160621 0.224816 -2.052807 2.269911 0.224816 -2.052807 2.269910 0.176224 -1.538797 1.703006 2.057749 -15.395969 -2.890941 2.766402 7.608387 -4.634254 9.023004 3.290616 -11.013982 78.116696 9.314118 6.227397 -0.796525 -21.301868 0.608309 -15.870441 6.029703 18.666866 -10.927519 -1.650668 -12.931285 -75.783155 3.793525 -6.621523 0.531090 -9.427953 0.817374 17.750173 -17.583687 -21.862252 -0.339035 -10.504336 -4.028564 0.945141 -1.954821 -1.430813 0.038775 4.972347 1.880482 0.076721 0.051389 -0.033993 -0.060518 -10.025572 -0.961490 0.366460 -1.425371 -2.428993 0.108993 4.379671 3.392459 0.061675 -0.065449 0.037209 
